#!OML:ASF E:\Steps\Project 1\Capture day 1\Session 2\Subject.ASF
:FULLY-SPECIFIED
:DEGREES
190
root -1.04973 17.9731 20.7199 -152.833 -11.7211 177.177
lowerback -25.1 0.49564 -7.86805
upperback -1.19227 2.62488 -1.15788
thorax 12.4166 0.609035 4.07414
lowerneck -6.3223 6.10091 3.49687
upperneck -1.86939 7.76407 -0.777522
head 0.634842 3.79594 -0.617509
rclavicle -3.01159e-014 1.35174e-014
rhumerus -42.6237 -12.251 -82.6788
rradius 37.2964
rwrist -19.8226
rhand 3.83652 -59.9289
rfingers 7.12502
rthumb 29.2596 632.352
lclavicle -3.01159e-014 1.35174e-014
lhumerus -28.2428 -2.93929 84.4202
lradius 27.9757
lwrist 0.806735
lhand -22.6682 -12.7104
lfingers 7.12502
lthumb 3.7635 17.2361
rfemur -22.9278 2.89967 20.2658
rtibia 5.81582
rfoot -18.5312 -7.40632
rtoes -12.6677
lfemur -25.6178 -9.54934 -22.4408
ltibia 7.52585
lfoot -5.04073 -8.5619
ltoes -33.5083
191
root -1.0551 17.9737 20.7134 -152.828 -11.8409 177.225
lowerback -25.1073 0.531465 -7.8036
upperback -1.20491 2.65755 -1.20424
thorax 12.4072 0.629296 3.99549
lowerneck -6.35272 6.39234 3.91343
upperneck -2.41701 8.10469 -1.10311
head 0.509213 3.94507 -0.782746
rclavicle -1.99282e-014 -2.5842e-014
rhumerus -42.6505 -12.191 -82.738
rradius 37.2796
rwrist -19.5933
rhand 3.85478 -59.4179
rfingers 7.12502
rthumb 29.277 632.866
lclavicle -1.99282e-014 -2.5842e-014
lhumerus -28.2697 -3.11585 84.5339
lradius 28.2658
lwrist 0.92398
lhand -22.5023 -12.8757
lfingers 7.12502
lthumb 3.9237 17.0679
rfemur -22.8683 2.76022 20.3439
rtibia 5.73121
rfoot -18.5496 -7.34833
rtoes -12.5754
lfemur -25.5945 -9.61092 -22.3734
ltibia 7.50686
lfoot -5.05167 -8.55218
ltoes -33.7183
192
root -1.05978 17.9722 20.7076 -152.875 -12.034 177.292
lowerback -25.079 0.561288 -7.72356
upperback -1.17796 2.68036 -1.22267
thorax 12.4255 0.645726 3.93648
lowerneck -6.43042 6.4528 4.12431
upperneck -2.7898 8.15329 -1.35467
head 0.428378 3.95458 -0.896819
rclavicle -1.1281e-014 5.92378e-014
rhumerus -42.5896 -12.2671 -82.7567
rradius 37.2141
rwrist -19.367
rhand 3.7455 -59.1196
rfingers 7.12502
rthumb 29.1727 633.146
lclavicle -1.1281e-014 5.92378e-014
lhumerus -28.2339 -3.50385 84.7475
lradius 28.5569
lwrist 1.29821
lhand -22.6738 -12.8691
lfingers 7.12502
lthumb 3.75807 17.0776
rfemur -22.7246 2.55896 20.4951
rtibia 5.61716
rfoot -18.5571 -7.29146
rtoes -12.6122
lfemur -25.5032 -9.56332 -22.3153
ltibia 7.40866
lfoot -4.88705 -8.71143
ltoes -33.4807
193
root -1.06462 17.9715 20.7009 -152.948 -12.226 177.285
lowerback -25.0519 0.561655 -7.74048
upperback -1.10929 2.69829 -1.23671
thorax 12.4894 0.652584 3.93702
lowerneck -6.69239 5.90416 3.68803
upperneck -2.3965 7.45201 -1.15333
head 0.550217 3.61833 -0.770655
rclavicle 1.59525e-014 4.35338e-014
rhumerus -42.4211 -12.2961 -82.7986
rradius 37.117
rwrist -19.2113
rhand 3.63364 -59.3491
rfingers 7.12502
rthumb 29.0659 632.898
lclavicle 1.59525e-014 4.35338e-014
lhumerus -28.1163 -3.81945 84.9493
lradius 28.7409
lwrist 1.56694
lhand -22.8106 -12.7693
lfingers 7.12502
lthumb 3.62601 17.1796
rfemur -22.4865 2.55779 20.5148
rtibia 5.4319
rfoot -18.5376 -7.48097
rtoes -12.7508
lfemur -25.3606 -9.51695 -22.351
ltibia 7.33657
lfoot -4.71801 -8.99131
ltoes -32.6509
194
root -1.06855 17.9713 20.6952 -152.963 -12.3111 177.266
lowerback -25.0591 0.567909 -7.78687
upperback -1.08325 2.72854 -1.273
thorax 12.5202 0.663535 3.93305
lowerneck -6.77965 5.92377 3.86162
upperneck -2.60343 7.45259 -1.3152
head 0.514473 3.60905 -0.849557
rclavicle 5.32743e-014 9.34288e-015
rhumerus -42.3024 -12.2728 -82.8781
rradius 37.031
rwrist -19.0086
rhand 3.71624 -59.8144
rfingers 7.12502
rthumb 29.1448 632.447
lclavicle 5.32743e-014 9.34288e-015
lhumerus -28.1082 -4.09689 85.0883
lradius 28.9823
lwrist 1.79947
lhand -22.7429 -12.5181
lfingers 7.12502
lthumb 3.69134 17.4297
rfemur -22.3682 2.57056 20.4974
rtibia 5.33064
rfoot -18.5253 -7.5892
rtoes -12.9946
lfemur -25.2882 -9.48668 -22.3871
ltibia 7.33289
lfoot -4.71873 -9.12561
ltoes -31.9073
195
root -1.07127 17.9721 20.6913 -152.965 -12.3401 177.284
lowerback -24.9881 0.581833 -7.81799
upperback -1.15761 2.73862 -1.29072
thorax 12.392 0.671839 3.92993
lowerneck -6.56633 6.14983 4.26923
upperneck -3.15956 7.71852 -1.70337
head 0.346929 3.72293 -1.0435
rclavicle 4.27387e-015 -2.18663e-015
rhumerus -42.4338 -12.2105 -82.9368
rradius 37.0753
rwrist -18.8303
rhand 3.92261 -60.6095
rfingers 7.12502
rthumb 29.3418 631.686
lclavicle 4.27387e-015 -2.18663e-015
lhumerus -28.2682 -4.09111 85.1595
lradius 29.1797
lwrist 1.73841
lhand -22.5074 -12.4694
lfingers 7.12502
lthumb 3.91879 17.4743
rfemur -22.3672 2.40496 20.5538
rtibia 5.34291
rfoot -18.5228 -7.50207
rtoes -13.6461
lfemur -25.2573 -9.46994 -22.3689
ltibia 7.30831
lfoot -4.73325 -9.11791
ltoes -31.6459
196
root -1.07377 17.9742 20.6897 -152.94 -12.4038 177.252
lowerback -24.8673 0.547193 -7.89283
upperback -1.25023 2.68657 -1.27869
thorax 12.2192 0.650577 3.96272
lowerneck -6.33905 6.28252 4.44552
upperneck -3.65781 7.87925 -2.01111
head 0.180481 3.78959 -1.17883
rclavicle -3.03644e-014 2.66371e-014
rhumerus -42.5581 -12.0209 -82.9636
rradius 37.0542
rwrist -18.6828
rhand 3.99161 -60.9761
rfingers 7.12502
rthumb 29.4077 631.331
lclavicle -3.03644e-014 2.66371e-014
lhumerus -28.4263 -3.925 85.2508
lradius 29.2402
lwrist 1.3993
lhand -22.5081 -12.6546
lfingers 7.12502
lthumb 3.91812 17.2891
rfemur -22.4349 2.18131 20.5651
rtibia 5.43756
rfoot -18.5419 -7.44745
rtoes -14.3242
lfemur -25.2837 -9.40342 -22.4175
ltibia 7.30293
lfoot -4.62311 -9.23566
ltoes -31.45
197
root -1.07899 17.9753 20.6913 -152.831 -12.3695 177.252
lowerback -24.8336 0.568518 -7.89325
upperback -1.33228 2.69994 -1.30916
thorax 12.1045 0.661086 3.9297
lowerneck -6.42664 6.1122 4.25276
upperneck -3.43878 7.67016 -1.95905
head 0.246494 3.69338 -1.13043
rclavicle -1.43125e-014 -4.1546e-014
rhumerus -42.4567 -11.5217 -83.218
rradius 36.7639
rwrist -19.2488
rhand 3.93862 -61.3859
rfingers 7.12502
rthumb 29.3571 630.912
lclavicle -1.43125e-014 -4.1546e-014
lhumerus -28.5482 -4.16309 85.4143
lradius 29.3735
lwrist 1.42257
lhand -22.7751 -12.5308
lfingers 7.12502
lthumb 3.66029 17.4175
rfemur -22.6823 2.07912 20.5451
rtibia 5.64814
rfoot -18.5992 -7.34318
rtoes -14.3661
lfemur -25.4232 -9.20613 -22.4769
ltibia 7.30919
lfoot -4.63679 -9.37584
ltoes -32.1533
198
root -1.0854 17.974 20.6929 -152.649 -12.2482 177.341
lowerback -24.9507 0.667979 -7.79907
upperback -1.40977 2.8049 -1.36672
thorax 12.0728 0.714158 3.84759
lowerneck -6.62308 5.86749 4.12421
upperneck -3.14273 7.35279 -1.87904
head 0.35345 3.54222 -1.08322
rclavicle -1.46107e-014 -5.06901e-014
rhumerus -42.3666 -11.0434 -83.5977
rradius 36.6674
rwrist -20.1608
rhand 3.83771 -62.5036
rfingers 7.12502
rthumb 29.2607 810.222
lclavicle -1.46107e-014 -5.06901e-014
lhumerus -28.5864 -4.56568 85.5666
lradius 29.4968
lwrist 1.67187
lhand -22.7981 -12.344
lfingers 7.12502
lthumb 3.63804 17.6047
rfemur -23.0607 2.06317 20.5934
rtibia 5.87753
rfoot -18.6422 -7.17756
rtoes -14.3629
lfemur -25.6697 -9.0652 -22.4204
ltibia 7.34284
lfoot -4.80413 -9.30776
ltoes -33.3583
199
root -1.08938 17.9723 20.6926 -152.526 -12.2054 177.434
lowerback -25.0344 0.73246 -7.71814
upperback -1.45185 2.86742 -1.37985
thorax 12.0666 0.746255 3.80936
lowerneck -6.794 5.73583 4.08982
upperneck -3.22628 7.16395 -1.92841
head 0.351175 3.44305 -1.09507
rclavicle 1.94809e-014 -3.73715e-014
rhumerus -42.3272 -11.0273 -83.6808
rradius 36.8116
rwrist -20.0658
rhand 3.2431 -62.145
rfingers 7.12502
rthumb 28.6928 990.039
lclavicle 1.94809e-014 -3.73715e-014
lhumerus -28.5528 -4.69691 85.7057
lradius 29.4914
lwrist 1.6874
lhand -22.6177 -12.4195
lfingers 7.12502
lthumb 3.81232 17.5261
rfemur -23.2534 2.33054 20.6162
rtibia 5.91501
rfoot -18.6344 -7.36214
rtoes -14.3845
lfemur -25.8311 -9.05574 -22.3074
ltibia 7.35534
lfoot -4.8623 -9.25744
ltoes -33.5887
200
root -1.09316 17.9704 20.6925 -152.467 -12.2162 177.482
lowerback -25.0292 0.735331 -7.6603
upperback -1.48667 2.84834 -1.37823
thorax 12.028 0.741812 3.7709
lowerneck -6.91019 5.72514 4.0955
upperneck -3.52322 7.12656 -2.06075
head 0.28255 3.41332 -1.13959
rclavicle -1.83379e-014 1.98785e-014
rhumerus -42.2523 -11.0001 -83.7259
rradius 36.7798
rwrist -19.6271
rhand 2.73239 -62.2211
rfingers 7.12502
rthumb 28.2048 810.119
lclavicle -1.83379e-014 1.98785e-014
lhumerus -28.5736 -4.65941 85.8027
lradius 29.4885
lwrist 1.74363
lhand -22.4267 -12.4237
lfingers 7.12502
lthumb 3.99673 17.5186
rfemur -23.3217 2.64369 20.5944
rtibia 5.92415
rfoot -18.661 -7.63866
rtoes -14.0073
lfemur -25.885 -9.01829 -22.2668
ltibia 7.33303
lfoot -4.82474 -9.35678
ltoes -33.2275
201
root -1.09664 17.9692 20.6923 -152.38 -12.2123 177.47
lowerback -25.0612 0.688163 -7.67149
upperback -1.52378 2.7854 -1.39263
thorax 12.0096 0.711557 3.73975
lowerneck -6.76223 6.08729 4.54596
upperneck -3.87263 7.56947 -2.43341
head 0.197462 3.61928 -1.32755
rclavicle 1.84373e-014 -4.67144e-014
rhumerus -42.1947 -10.7904 -83.9096
rradius 36.6633
rwrist -19.332
rhand 3.27927 -62.8408
rfingers 7.12502
rthumb 28.7274 810.651
lclavicle 1.84373e-014 -4.67144e-014
lhumerus -28.5907 -4.58479 85.8226
lradius 29.4088
lwrist 1.82078
lhand -22.5103 -12.2563
lfingers 7.12502
lthumb 3.91597 17.6875
rfemur -23.4272 2.73272 20.5441
rtibia 5.97435
rfoot -18.7002 -7.71196
rtoes -13.664
lfemur -25.9783 -8.95493 -22.3013
ltibia 7.37334
lfoot -4.76352 -9.40124
ltoes -32.5492
202
root -1.09779 17.9707 20.69 -152.292 -12.181 177.396
lowerback -25.0975 0.641726 -7.7966
upperback -1.54663 2.75936 -1.42667
thorax 12.0012 0.691763 3.76381
lowerneck -6.77064 6.0051 4.57523
upperneck -3.78575 7.46213 -2.50484
head 0.226974 3.5677 -1.35661
rclavicle -2.51463e-014 7.95139e-015
rhumerus -42.1858 -10.7835 -83.9706
rradius 36.6792
rwrist -18.8861
rhand 2.54823 -61.5779
rfingers 7.12502
rthumb 28.0288 990.495
lclavicle -2.51463e-014 7.95139e-015
lhumerus -28.5538 -4.5606 85.8448
lradius 29.2096
lwrist 1.75421
lhand -22.6966 -12.1795
lfingers 7.12502
lthumb 3.73612 17.7675
rfemur -23.4926 2.88865 20.4034
rtibia 5.96338
rfoot -18.7137 -7.89704
rtoes -13.7607
lfemur -26.0571 -8.86887 -22.4066
ltibia 7.41732
lfoot -4.73354 -9.4549
ltoes -32.2302
203
root -1.09895 17.9721 20.6855 -152.276 -12.1612 177.38
lowerback -25.1083 0.632642 -7.88183
upperback -1.54367 2.77428 -1.45184
thorax 12.0059 0.693676 3.78894
lowerneck -6.92124 5.82649 4.52732
upperneck -3.82435 7.21354 -2.52705
head 0.230583 3.44023 -1.35962
rclavicle 3.96078e-014 -3.75703e-014
rhumerus -42.1516 -10.8956 -83.9803
rradius 36.6847
rwrist -18.5804
rhand 2.58903 -61.7831
rfingers 7.12502
rthumb 28.0678 990.297
lclavicle 3.96078e-014 -3.75703e-014
lhumerus -28.4753 -4.58325 85.8775
lradius 28.9957
lwrist 1.79479
lhand -22.4553 -12.2175
lfingers 7.12502
lthumb 3.96908 17.7253
rfemur -23.511 3.02375 20.3504
rtibia 6.00979
rfoot -18.7651 -8.03124
rtoes -13.8452
lfemur -26.0413 -8.83493 -22.4346
ltibia 7.4033
lfoot -4.75132 -9.48027
ltoes -31.9552
